<mxfile host="app.diagrams.net" modified="2023-06-28T14:31:53.558Z" agent="Mozilla/5.0 (Windows NT 10.0; Win64; x64) AppleWebKit/537.36 (KHTML, like Gecko) Chrome/114.0.0.0 Safari/537.36" etag="ecsHoYQXxlgAyBOICa0p" version="21.5.1" type="github">
  <diagram name="페이지-1" id="v-o5L-JWq5W-mpQtV2Bt">
    <mxGraphModel dx="1434" dy="756" grid="1" gridSize="10" guides="1" tooltips="1" connect="1" arrows="1" fold="1" page="1" pageScale="1" pageWidth="827" pageHeight="1169" math="0" shadow="0">
      <root>
        <mxCell id="0" />
        <mxCell id="1" parent="0" />
        <mxCell id="FE2sTymDAavt2vst0oKf-8" style="edgeStyle=orthogonalEdgeStyle;rounded=0;orthogonalLoop=1;jettySize=auto;html=1;exitX=1;exitY=0.3333333333333333;exitDx=0;exitDy=0;exitPerimeter=0;entryX=0;entryY=0.5;entryDx=0;entryDy=0;" edge="1" parent="1" source="FE2sTymDAavt2vst0oKf-2" target="FE2sTymDAavt2vst0oKf-3">
          <mxGeometry relative="1" as="geometry" />
        </mxCell>
        <mxCell id="FE2sTymDAavt2vst0oKf-9" style="edgeStyle=orthogonalEdgeStyle;rounded=0;orthogonalLoop=1;jettySize=auto;html=1;exitX=1;exitY=0.3333333333333333;exitDx=0;exitDy=0;exitPerimeter=0;entryX=0;entryY=0.5;entryDx=0;entryDy=0;" edge="1" parent="1" source="FE2sTymDAavt2vst0oKf-2" target="FE2sTymDAavt2vst0oKf-4">
          <mxGeometry relative="1" as="geometry" />
        </mxCell>
        <mxCell id="FE2sTymDAavt2vst0oKf-2" value="Actor" style="shape=umlActor;verticalLabelPosition=bottom;verticalAlign=top;html=1;outlineConnect=0;" vertex="1" parent="1">
          <mxGeometry x="70" y="320" width="50" height="90" as="geometry" />
        </mxCell>
        <mxCell id="FE2sTymDAavt2vst0oKf-10" style="edgeStyle=orthogonalEdgeStyle;rounded=0;orthogonalLoop=1;jettySize=auto;html=1;entryX=0;entryY=0.5;entryDx=0;entryDy=0;" edge="1" parent="1" source="FE2sTymDAavt2vst0oKf-3" target="FE2sTymDAavt2vst0oKf-5">
          <mxGeometry relative="1" as="geometry" />
        </mxCell>
        <mxCell id="FE2sTymDAavt2vst0oKf-11" style="edgeStyle=orthogonalEdgeStyle;rounded=0;orthogonalLoop=1;jettySize=auto;html=1;entryX=0;entryY=0.5;entryDx=0;entryDy=0;" edge="1" parent="1" source="FE2sTymDAavt2vst0oKf-3" target="FE2sTymDAavt2vst0oKf-6">
          <mxGeometry relative="1" as="geometry" />
        </mxCell>
        <mxCell id="FE2sTymDAavt2vst0oKf-12" style="edgeStyle=orthogonalEdgeStyle;rounded=0;orthogonalLoop=1;jettySize=auto;html=1;entryX=0;entryY=0.5;entryDx=0;entryDy=0;" edge="1" parent="1" source="FE2sTymDAavt2vst0oKf-3" target="FE2sTymDAavt2vst0oKf-7">
          <mxGeometry relative="1" as="geometry" />
        </mxCell>
        <mxCell id="FE2sTymDAavt2vst0oKf-3" value="전체 게시글 목록 조회" style="rounded=0;whiteSpace=wrap;html=1;" vertex="1" parent="1">
          <mxGeometry x="190" y="280" width="120" height="60" as="geometry" />
        </mxCell>
        <mxCell id="FE2sTymDAavt2vst0oKf-4" value="게시글 작성" style="rounded=0;whiteSpace=wrap;html=1;" vertex="1" parent="1">
          <mxGeometry x="190" y="370" width="120" height="60" as="geometry" />
        </mxCell>
        <mxCell id="FE2sTymDAavt2vst0oKf-5" value="게시글 조회" style="rounded=0;whiteSpace=wrap;html=1;" vertex="1" parent="1">
          <mxGeometry x="354" y="170" width="120" height="60" as="geometry" />
        </mxCell>
        <mxCell id="FE2sTymDAavt2vst0oKf-6" value="게시글 수정" style="rounded=0;whiteSpace=wrap;html=1;" vertex="1" parent="1">
          <mxGeometry x="354" y="260" width="120" height="60" as="geometry" />
        </mxCell>
        <mxCell id="FE2sTymDAavt2vst0oKf-7" value="게시글 삭제" style="rounded=0;whiteSpace=wrap;html=1;" vertex="1" parent="1">
          <mxGeometry x="354" y="350" width="120" height="60" as="geometry" />
        </mxCell>
      </root>
    </mxGraphModel>
  </diagram>
</mxfile>
